<?xml version="1.0" encoding="iso-8859-1"?>
<!-- Uploaded to: SVG Repo, www.svgrepo.com, Generator: SVG Repo Mixer Tools -->
<svg height="100px" width="100px" version="1.1" id="Capa_1" xmlns="http://www.w3.org/2000/svg"
	xmlns:xlink="http://www.w3.org/1999/xlink" viewBox="0 0 338.576 338.576" xml:space="preserve">
	<g>
		<path style="fill:#00B37E;" d="M323.097,153.814h-11.221v-38.878c0-6.407-5.194-11.602-11.602-11.602h-21.131V80.67
		c0-8.539-6.924-15.469-15.469-15.469h-40.167c-8.545,0-15.474,6.924-15.474,15.469v73.145h-77.8V80.67
		c0-8.539-6.929-15.469-15.474-15.469H74.586c-8.545,0-15.474,6.924-15.474,15.469v22.665h-21.12
		c-6.407,0-11.602,5.194-11.602,11.602v38.878H15.469C6.929,153.814,0,160.738,0,169.288c0,8.539,6.924,15.469,15.469,15.469H26.39
		v38.878c0,6.407,5.194,11.607,11.602,11.607h21.12v22.659c0,8.545,6.924,15.474,15.474,15.474h40.173
		c8.539,0,15.474-6.924,15.474-15.474v-73.15h77.806v73.145c0,8.545,6.924,15.474,15.474,15.474h40.168
		c8.539,0,15.469-6.924,15.469-15.474v-22.659h21.131c6.407,0,11.602-5.2,11.602-11.607v-38.878h11.221
		c8.545,0,15.474-6.924,15.474-15.469C338.571,160.738,331.647,153.814,323.097,153.814z M49.599,212.034v-85.497h9.518v85.497
		C59.117,212.034,49.599,212.034,49.599,212.034z M99.296,242.427h-9.23V96.138h9.23V242.427z M248.212,242.427h-9.23V96.138h9.23
		V242.427z M288.673,212.034h-9.529v-85.497h9.529V212.034z" />
	</g>
</svg>